#!OML:ASF F:\VICON\USERDATA\INSTALL\rory3\rory3.ASF
:FULLY-SPECIFIED
:DEGREES
126
root 1.06696 18.1539 -7.38622 -1.92272 -2.8947 -3.29542
lowerback 9.44732 1.73249 3.12419
upperback 0.0082358 2.71641 1.26501
thorax -5.20887 1.27506 -0.809013
lowerneck -16.5097 -3.74343 -1.32671
upperneck 22.8856 -4.94036 0.187074
head 10.0517 -2.37368 -0.375529
rclavicle -1.3272e-014 -1.03368e-014
rhumerus -25.0513 -18.5862 -79.5471
rradius 29.9948
rwrist -0.397305
rhand -17.1543 24.6698
rfingers 7.12502
rthumb 9.08645 -5.11446
lclavicle -1.3272e-014 -1.03368e-014
lhumerus -37.0345 13.3059 79.645
lradius 19.4648
lwrist 2.62562
lhand -28.3958 19.4076
lfingers 7.12502
lthumb -1.76818 49.38
rfemur 1.23452 3.14857 26.3125
rtibia 51.9643
rfoot 12.5919 -1.58346
rtoes 10.5212
lfemur -18.2758 -1.31828 -19.1028
ltibia 24.8143
lfoot -2.94529 -1.13555
ltoes 1.03178
127
root 1.09177 18.1628 -7.19896 -1.88036 -3.03276 -2.68126
lowerback 9.43413 1.72074 2.47517
upperback -0.111431 2.62719 1.16169
thorax -5.35354 1.2438 -0.543336
lowerneck -16.4712 -3.66842 -1.33315
upperneck 22.9441 -4.82355 0.139712
head 10.0633 -2.32614 -0.375263
rclavicle 1.31664e-014 -4.07509e-015
rhumerus -25.6217 -18.1459 -79.4965
rradius 30.0801
rwrist -0.49535
rhand -16.9052 24.4762
rfingers 7.12502
rthumb 9.32684 -5.29749
lclavicle 1.31664e-014 -4.07509e-015
lhumerus -37.2601 12.3865 80.1979
lradius 20.2153
lwrist 3.8362
lhand -28.8137 16.9943
lfingers 7.12502
lthumb -2.17177 46.963
rfemur -0.39951 3.07168 25.3792
rtibia 54.5526
rfoot 12.9452 -1.39765
rtoes 13.1061
lfemur -17.8264 -1.35487 -19.9358
ltibia 24.9842
lfoot -3.5199 -0.729169
ltoes 1.32858
128
root 1.10595 18.1707 -7.02226 -2.08842 -3.0661 -2.31976
lowerback 9.73224 1.70499 2.04432
upperback -0.145861 2.56418 1.08424
thorax -5.57412 1.22019 -0.385035
lowerneck -16.302 -3.68112 -1.34467
upperneck 22.8286 -4.85869 0.215909
head 9.99271 -2.33654 -0.346367
rclavicle -4.34841e-015 -6.85807e-015
rhumerus -25.9968 -18.1782 -79.391
rradius 29.7326
rwrist -0.0469151
rhand -17.1964 24.095
rfingers 7.12502
rthumb 9.04587 -5.69106
lclavicle -4.34841e-015 -6.85807e-015
lhumerus -37.3412 11.5187 80.5311
lradius 20.7608
lwrist 4.56059
lhand -29.3619 6.73623
lfingers 7.12502
lthumb -2.70121 36.6989
rfemur -1.77251 2.82133 24.8354
rtibia 57.0062
rfoot 12.2615 -1.41878
rtoes 13.7949
lfemur -17.2291 -1.4659 -20.4604
ltibia 25.4789
lfoot -4.20845 -0.262039
ltoes 0.814871
129
root 1.11892 18.1911 -6.84487 -2.22977 -3.04922 -2.02145
lowerback 9.97843 1.64864 1.64114
upperback -0.217288 2.44811 1.03428
thorax -5.80466 1.17088 -0.203957
lowerneck -16.046 -3.63394 -1.26711
upperneck 22.6622 -4.82125 0.2417
head 9.8832 -2.31276 -0.337615
rclavicle 6.06604e-015 -2.25621e-014
rhumerus -26.37 -18.1459 -79.3077
rradius 29.349
rwrist 0.429325
rhand -16.9796 24.0229
rfingers 7.12502
rthumb 9.25501 -5.75394
lclavicle 6.06604e-015 -2.25621e-014
lhumerus -37.368 11.1262 80.6307
lradius 21.1234
lwrist 4.7072
lhand -29.1074 0.498316
lfingers 7.12502
lthumb -2.45543 30.4639
rfemur -3.19824 2.56593 24.3986
rtibia 59.2868
rfoot 10.9339 -2.2082
rtoes 12.0745
lfemur -16.1239 -1.6276 -20.8756
ltibia 25.3452
lfoot -4.82083 0.0819029
ltoes 1.16917
130
root 1.13646 18.2243 -6.66209 -2.28767 -3.08693 -1.7093
lowerback 10.0109 1.59865 1.29709
upperback -0.148188 2.33754 0.983979
thorax -5.763 1.12638 -0.0470887
lowerneck -16.2584 -3.59461 -1.30058
upperneck 22.5228 -4.77603 0.337055
head 9.87687 -2.28329 -0.295631
rclavicle -1.30049e-014 2.32578e-014
rhumerus -26.4572 -17.9437 -79.3852
rradius 29.1043
rwrist 0.896271
rhand -17.2612 24.0081
rfingers 7.12502
rthumb 8.98326 -5.78064
lclavicle -1.30049e-014 2.32578e-014
lhumerus -37.0267 10.2342 81.2459
lradius 21.6626
lwrist 6.22162
lhand -28.8221 5.54044
lfingers 7.12502
lthumb -2.17988 35.5091
rfemur -4.63524 2.37377 23.8992
rtibia 61.3122
rfoot 9.80816 -3.5972
rtoes 10.3735
lfemur -14.6069 -1.83313 -21.2529
ltibia 25.2728
lfoot -5.82766 0.476646
ltoes 4.83511
131
root 1.15389 18.2245 -6.48621 -2.36106 -3.06362 -1.20759
lowerback 10.0937 1.536 0.741587
upperback -0.0545784 2.18417 0.907914
thorax -5.72981 1.06611 0.207046
lowerneck -16.5944 -3.54821 -1.32788
upperneck 22.3231 -4.70268 0.366399
head 9.86993 -2.24752 -0.275552
rclavicle 5.75233e-015 1.51076e-014
rhumerus -26.4297 -17.6322 -79.5273
rradius 28.8314
rwrist 1.7059
rhand -18.0512 23.3479
rfingers 7.12502
rthumb 8.22095 -6.47219
lclavicle 5.75233e-015 1.51076e-014
lhumerus -36.6808 8.91672 82.1611
lradius 22.3928
lwrist 8.56578
lhand -27.621 14.6927
lfingers 7.12502
lthumb -1.01985 44.67
rfemur -6.16417 1.99362 23.1507
rtibia 63.2649
rfoot 8.5365 -4.57497
rtoes 7.80721
lfemur -14.7713 -1.58456 -22.0636
ltibia 24.9401
lfoot -4.89082 0.499569
ltoes 2.49136
132
root 1.16643 18.2147 -6.306 -2.52714 -2.92982 -0.956597
lowerback 10.2931 1.3846 0.403781
upperback -0.0564221 1.94518 0.913345
thorax -5.85538 0.957693 0.43308
lowerneck -16.6903 -3.45644 -1.47386
upperneck 22.3267 -4.57092 0.516257
head 9.89606 -2.18098 -0.18365
rclavicle -7.86442e-015 -7.35503e-015
rhumerus -26.562 -17.1979 -79.6215
rradius 28.4666
rwrist 2.24092
rhand -18.3959 22.8513
rfingers 7.12502
rthumb 7.88824 -6.98152
lclavicle -7.86442e-015 -7.35503e-015
lhumerus -36.514 8.30252 82.4975
lradius 22.7292
lwrist 9.60408
lhand -28.1209 14.5804
lfingers 7.12502
lthumb -1.50266 44.5548
rfemur -7.47328 1.54766 22.7297
rtibia 65.0604
rfoot 7.19026 -5.31145
rtoes 5.62421
lfemur -13.5703 -1.7138 -22.4232
ltibia 24.6814
lfoot -5.9159 0.84077
ltoes 0.454142
133
root 1.17778 18.2128 -6.12501 -2.67906 -2.79073 -0.944511
lowerback 10.3777 1.26833 0.362543
upperback -0.00851996 1.78694 0.934914
thorax -5.85342 0.881332 0.501549
lowerneck -16.8115 -3.47225 -1.46088
upperneck 22.3385 -4.60774 0.563504
head 9.92436 -2.19059 -0.176808
rclavicle 5.58461e-015 -1.21259e-014
rhumerus -26.7535 -17.3981 -79.6294
rradius 28.3314
rwrist 2.82244
rhand -18.1641 22.4087
rfingers 7.12502
rthumb 8.11193 -7.41564
lclavicle 5.58461e-015 -1.21259e-014
lhumerus -36.1077 7.72079 82.6729
lradius 22.8372
lwrist 9.71701
lhand -30.4267 8.01977
lfingers 7.12502
lthumb -3.7295 37.9669
rfemur -8.65862 1.0879 22.5948
rtibia 66.6323
rfoot 6.1828 -5.79699
rtoes 4.36615
lfemur -12.313 -1.78786 -22.5423
ltibia 24.0429
lfoot -6.46513 0.892602
ltoes 0.171058
134
root 1.19043 18.2143 -5.95566 -2.75561 -2.70464 -0.875788
lowerback 10.41 1.20992 0.290961
upperback 0.0186881 1.7008 0.939727
thorax -5.84445 0.841107 0.559642
lowerneck -16.6571 -3.47212 -1.38168
upperneck 22.1653 -4.60593 0.474134
head 9.82912 -2.19594 -0.215758
rclavicle 1.6027e-015 -1.92821e-014
rhumerus -27.1872 -17.2029 -79.6807
rradius 28.7518
rwrist 2.73513
rhand -18.1494 21.2679
rfingers 7.12502
rthumb 8.12617 -8.55584
lclavicle 1.6027e-015 -1.92821e-014
lhumerus -35.6681 7.22967 82.8455
lradius 22.9107
lwrist 9.59167
lhand -29.9757 6.55491
lfingers 7.12502
lthumb -3.29403 36.5092
rfemur -10.0484 0.761752 22.4072
rtibia 67.9764
rfoot 5.50573 -6.21607
rtoes 6.51667
lfemur -11.6293 -1.68214 -22.7223
ltibia 24.0587
lfoot -6.9869 0.84067
ltoes 0.598445
135
root 1.20114 18.2168 -5.79028 -2.84199 -2.57905 -0.823738
lowerback 10.5764 1.06495 0.180656
upperback 0.00900306 1.49903 0.99166
thorax -5.95072 0.745668 0.703943
lowerneck -16.4368 -3.3671 -1.43151
upperneck 21.9709 -4.4355 0.436078
head 9.71765 -2.12859 -0.191686
rclavicle -6.59095e-015 -1.59028e-015
rhumerus -27.5685 -17.2738 -79.5976
rradius 28.803
rwrist 3.03445
rhand -18.0956 20.8677
rfingers 7.12502
rthumb 8.1781 -8.95401
lclavicle -6.59095e-015 -1.59028e-015
lhumerus -35.537 6.77759 83.0114
lradius 23.4001
lwrist 9.72782
lhand -27.7911 12.5732
lfingers 7.12502
lthumb -1.18411 42.5497
rfemur -11.4628 0.386973 22.2569
rtibia 69.1453
rfoot 4.89245 -6.33968
rtoes 8.41172
lfemur -11.2871 -1.49679 -22.8865
ltibia 24.3979
lfoot -7.47791 0.799954
ltoes 1.18538
136
root 1.21178 18.2311 -5.61507 -2.86053 -2.47953 -0.90254
lowerback 10.6704 0.910284 0.160724
upperback -0.0227548 1.30123 1.14331
thorax -6.03885 0.651391 0.903327
lowerneck -16.3469 -3.38936 -1.55735
upperneck 21.8246 -4.39386 0.282289
head 9.6481 -2.13924 -0.215376
rclavicle -6.27414e-015 2.0276e-014
rhumerus -27.775 -17.8623 -79.2036
rradius 28.1223
rwrist 4.16833
rhand -18.1139 21.7069
rfingers 7.12502
rthumb 8.16045 -8.11552
lclavicle -6.27414e-015 2.0276e-014
lhumerus -35.3497 6.47035 83.2228
lradius 23.8276
lwrist 9.8591
lhand -27.1822 17.8587
lfingers 7.12502
lthumb -0.596064 47.8376
rfemur -12.8055 0.103113 22.304
rtibia 70.0632
rfoot 3.91442 -6.41294
rtoes 7.83971
lfemur -11.3313 -1.29089 -22.9602
ltibia 24.8976
lfoot -7.87889 0.940199
ltoes 0.753568
137
root 1.22317 18.2145 -5.44554 -2.90638 -2.37231 -0.769326
lowerback 10.6651 0.778936 -0.0665347
upperback -0.0160886 1.10273 1.21754
thorax -6.03148 0.561859 1.14066
lowerneck -16.2938 -3.37662 -1.5716
upperneck 21.773 -4.34636 0.174226
head 9.61723 -2.13165 -0.242582
rclavicle -7.19352e-015 -1.13307e-014
rhumerus -27.9273 -18.4133 -78.8286
rradius 27.4716
rwrist 4.67144
rhand -17.9762 23.097
rfingers 7.12502
rthumb 8.2933 -6.72023
lclavicle -7.19352e-015 -1.13307e-014
lhumerus -35.0426 6.16845 83.3639
lradius 23.9402
lwrist 10.1367
lhand -27.4715 17.4921
lfingers 7.12502
lthumb -0.875497 47.47
rfemur -14.1388 -0.141383 22.0989
rtibia 70.9085
rfoot 2.46852 -6.38056
rtoes 6.02776
lfemur -10.1683 -1.23865 -23.2006
ltibia 25.3028
lfoot -9.27306 1.30085
ltoes -1.25207
